<svg width="18" height="18" viewBox="0 0 18 18" fill="none" xmlns="http://www.w3.org/2000/svg">
<path d="M9 17C8.88624 17.0011 8.77417 16.9724 8.675 16.9166C8.31667 16.7166 0 11.9916 0 5.99999C0 4.95058 0.330187 3.92777 0.943789 3.07644C1.55739 2.22512 2.4233 1.58844 3.41886 1.25658C4.41442 0.92473 5.48916 0.914532 6.49084 1.22743C7.49252 1.54033 8.37035 2.16047 9 3C9.62965 2.16047 10.5075 1.54033 11.5092 1.22743C12.5108 0.914532 13.5856 0.92473 14.5811 1.25658C15.5767 1.58844 16.4426 2.22512 17.0562 3.07644C17.6698 3.92777 18 4.95058 18 5.99999C18 8.54998 16.525 11.1666 13.6167 13.7833C12.296 14.9705 10.8581 16.0204 9.325 16.9166C9.22583 16.9724 9.11376 17.0011 9 17ZM5 2.33333C4.02754 2.33333 3.09491 2.71964 2.40728 3.40727C1.71964 4.0949 1.33333 5.02753 1.33333 5.99999C1.33333 10.6 7.5 14.6416 9 15.5583C10.5 14.6416 16.6667 10.6 16.6667 5.99999C16.6674 5.15235 16.3745 4.33062 15.8377 3.67461C15.3009 3.0186 14.5534 2.56884 13.7224 2.40185C12.8913 2.23486 12.0281 2.36095 11.2796 2.75867C10.531 3.1564 9.94339 3.80118 9.61667 4.58333C9.56644 4.7056 9.481 4.81018 9.37119 4.88378C9.26139 4.95738 9.13219 4.99668 9 4.99668C8.86781 4.99668 8.73861 4.95738 8.62881 4.88378C8.519 4.81018 8.43356 4.7056 8.38333 4.58333C8.10585 3.91522 7.63609 3.34463 7.03369 2.94402C6.4313 2.54341 5.72344 2.33085 5 2.33333Z" fill="#879BB9"/>
</svg>
